<?xml version="1.0" encoding="UTF-8"?>
<svg xmlns="http://www.w3.org/2000/svg" xmlns:xlink="http://www.w3.org/1999/xlink" width="75px" height="75px" viewBox="0 0 75 75" version="1.1">
<g id="surface1">
<path style="fill-rule:nonzero;fill:rgb(100%,100%,100%);fill-opacity:1;stroke-width:0.60625;stroke-linecap:butt;stroke-linejoin:miter;stroke:rgb(0%,0%,0%);stroke-opacity:1;stroke-miterlimit:4;" d="M 56.043303 56.043303 L 56.043303 4.557701 L 4.557701 4.557701 L 4.557701 56.043303 Z M 56.043303 56.043303 " transform="matrix(1.237603,0,0,1.237603,0,0)"/>
<path style=" stroke:none;fill-rule:nonzero;fill:rgb(0%,0%,0%);fill-opacity:1;" d="M 42.535156 57.703125 C 41.5 57.628906 40.757812 58 40.910156 59.183594 C 40.988281 59.769531 41.484375 61.902344 41.714844 62.382812 C 42.023438 62.976562 42.90625 63.269531 43.789062 63.269531 C 45.257812 63.269531 50.875 63.269531 53.085938 63.269531 C 55.3125 63.269531 56.039062 61.246094 56.414062 58.960938 C 56.8125 56.515625 63.621094 10.597656 63.621094 10.597656 L 61.609375 10.597656 C 61.609375 10.597656 55.40625 52.476562 55.003906 54.675781 C 54.492188 57.558594 54.0625 58.371094 51.753906 58.292969 C 49.835938 58.230469 43.867188 57.800781 42.535156 57.703125 "/>
<path style=" stroke:none;fill-rule:nonzero;fill:rgb(0%,0%,0%);fill-opacity:1;" d="M 49.652344 46.601562 C 49.34375 46.339844 48.988281 46.046875 48.601562 45.761719 C 48.644531 45.03125 48.722656 43.292969 48.628906 42.058594 C 48.988281 41.179688 49.265625 40.234375 49.480469 39.328125 C 49.835938 39.355469 50.238281 39.386719 50.5625 39.429688 C 50.71875 40.175781 50.8125 40.945312 50.8125 41.730469 C 50.8125 43.484375 50.378906 45.136719 49.652344 46.601562 Z M 44.035156 51.84375 L 43.261719 51.097656 C 44.050781 50.273438 44.871094 49.175781 45.503906 47.941406 C 46.078125 47.65625 47.160156 47.101562 47.949219 46.582031 C 48.414062 46.914062 48.816406 47.257812 49.125 47.535156 C 47.917969 49.449219 46.140625 50.96875 44.035156 51.84375 Z M 30.824219 47.894531 C 31.273438 47.652344 31.738281 47.226562 32.292969 46.984375 C 33.128906 47.65625 34.414062 48.351562 35.558594 48.476562 C 36.101562 49.578125 36.84375 50.644531 37.585938 51.394531 C 37.320312 51.683594 37.011719 51.964844 36.6875 52.207031 C 34.984375 51.691406 33.421875 50.761719 32.140625 49.46875 C 31.644531 48.980469 31.210938 48.449219 30.824219 47.894531 Z M 29.0625 40.074219 C 29.449219 39.898438 29.835938 39.71875 30.160156 39.589844 C 30.625 40.566406 31.289062 41.664062 32.015625 42.503906 C 31.707031 43.613281 31.535156 44.855469 31.722656 46.027344 C 31.242188 46.289062 30.683594 46.636719 30.285156 47.003906 C 29.402344 45.40625 28.921875 43.609375 28.921875 41.730469 C 28.921875 41.171875 28.984375 40.617188 29.0625 40.074219 Z M 42.859375 36.765625 L 43.679688 35.003906 C 44.730469 35.066406 45.816406 35.167969 46.914062 35.296875 C 47.515625 36.191406 48.214844 37.386719 48.601562 38.34375 C 48.460938 39.199219 48.214844 40.128906 47.902344 41.023438 C 47.191406 40.992188 46.277344 41.039062 45.566406 41.050781 C 45.011719 39.738281 43.972656 37.929688 42.859375 36.765625 Z M 42.96875 45.03125 C 41.578125 45.105469 39.953125 45.105469 38.589844 45.042969 C 37.816406 44.023438 37.292969 42.796875 36.859375 41.496094 C 37.183594 40.335938 37.878906 38.714844 38.511719 37.601562 L 42.164062 37.546875 C 43.109375 38.542969 44.019531 40.128906 44.5625 41.324219 C 44.34375 42.25 43.898438 43.882812 42.96875 45.03125 Z M 32.371094 35.804688 C 33.765625 35.496094 35.21875 35.265625 36.75 35.121094 C 37.042969 35.636719 37.429688 36.339844 37.738281 36.867188 C 37.042969 38.023438 36.316406 39.683594 35.929688 40.953125 C 35 41.207031 33.671875 41.574219 32.773438 41.789062 C 32.03125 40.910156 31.289062 39.632812 30.839844 38.578125 C 31.242188 37.636719 31.890625 36.453125 32.371094 35.804688 Z M 39.347656 32.28125 C 38.558594 32.648438 37.460938 33.445312 36.71875 34.078125 C 35.296875 34.210938 33.902344 34.417969 32.589844 34.691406 C 32.574219 34.367188 32.558594 33.984375 32.589844 33.582031 C 34.429688 31.929688 36.734375 30.972656 39.210938 30.824219 Z M 46.355469 34.1875 C 45.242188 34.078125 44.128906 33.984375 43.0625 33.9375 C 42.394531 33.445312 41.035156 32.453125 40.460938 32.28125 C 40.460938 31.765625 40.261719 30.808594 40.261719 30.808594 C 42.488281 30.886719 44.609375 31.636719 46.386719 32.964844 C 46.417969 33.382812 46.402344 33.832031 46.355469 34.1875 Z M 41.886719 50.96875 C 40.832031 51.058594 39.488281 51.023438 38.621094 50.945312 C 37.957031 50.367188 37.152344 49.308594 36.546875 48.144531 C 37.074219 47.652344 37.664062 46.8125 38.140625 46.058594 C 39.582031 46.140625 41.390625 46.15625 42.9375 46.074219 C 43.402344 46.5 44.050781 47.117188 44.515625 47.566406 C 43.726562 49.070312 42.660156 50.296875 41.886719 50.96875 Z M 48.445312 33.160156 C 46.15625 30.871094 43.109375 29.609375 39.875 29.609375 C 33.191406 29.609375 27.746094 35.046875 27.746094 41.730469 C 27.746094 44.972656 29.015625 48.015625 31.304688 50.304688 C 33.59375 52.59375 36.625 53.855469 39.875 53.855469 C 43.109375 53.855469 46.15625 52.59375 48.445312 50.304688 C 50.734375 48.015625 51.988281 44.972656 51.988281 41.730469 C 51.988281 38.496094 50.734375 35.449219 48.445312 33.160156 "/>
<path style=" stroke:none;fill-rule:nonzero;fill:rgb(0%,0%,0%);fill-opacity:1;" d="M 22.78125 64.113281 L 22.78125 49.199219 C 22.78125 49.199219 22.441406 49.09375 22.253906 48.867188 C 22.023438 48.578125 22.023438 48.078125 22.023438 47.523438 C 22.023438 44.632812 22.023438 36.367188 22.023438 35.867188 C 22.023438 34.675781 22.316406 34.183594 24.730469 32.90625 C 25.609375 32.4375 26.476562 31.863281 27.21875 31.113281 C 29.324219 29.019531 30.515625 25.980469 30.515625 22.773438 C 30.515625 16.695312 26.246094 11.753906 21 11.753906 C 15.757812 11.753906 11.503906 16.695312 11.503906 22.773438 C 11.503906 25.980469 12.695312 29.019531 14.796875 31.113281 C 15.539062 31.863281 16.390625 32.4375 17.289062 32.90625 C 19.703125 34.183594 19.996094 34.675781 19.996094 35.867188 C 19.996094 36.367188 19.996094 44.632812 19.996094 47.523438 C 19.996094 48.078125 19.996094 48.578125 19.761719 48.867188 C 19.578125 49.09375 19.238281 49.199219 19.238281 49.199219 L 19.238281 64.113281 L 22.78125 64.113281 "/>
<path style=" stroke:none;fill-rule:nonzero;fill:rgb(100%,100%,100%);fill-opacity:1;" d="M 21 32.015625 C 22.8125 32.015625 24.574219 31.246094 25.96875 29.859375 C 27.730469 28.097656 28.75 25.511719 28.75 22.773438 C 28.75 20.027344 27.730469 17.445312 25.96875 15.683594 C 24.574219 14.292969 22.8125 13.527344 21 13.527344 C 19.191406 13.527344 17.425781 14.292969 16.035156 15.683594 C 14.289062 17.445312 13.265625 20.027344 13.265625 22.773438 C 13.265625 25.511719 14.289062 28.097656 16.035156 29.859375 C 17.425781 31.246094 19.191406 32.015625 21 32.015625 "/>
</g>
</svg>
