<?xml version="1.0" encoding="UTF-8"?>
<svg xmlns="http://www.w3.org/2000/svg" xmlns:xlink="http://www.w3.org/1999/xlink" width="75px" height="75px" viewBox="0 0 75 75" version="1.1">
<g id="surface1">
<path style=" stroke:none;fill-rule:nonzero;fill:rgb(0%,0%,0%);fill-opacity:1;" d="M 73.042969 35.207031 L 55.695312 35.207031 L 55.695312 17.859375 L 57.398438 17.859375 L 57.398438 27.554688 C 57.398438 29.898438 59.304688 31.804688 61.648438 31.804688 C 63.992188 31.804688 65.898438 29.898438 65.898438 27.554688 L 65.898438 9.019531 C 65.898438 8.078125 65.136719 7.316406 64.199219 7.316406 L 59.097656 7.316406 C 58.15625 7.316406 57.398438 8.078125 57.398438 9.019531 L 57.398438 14.460938 L 55.695312 14.460938 L 55.695312 12.417969 C 55.695312 11.480469 54.933594 10.71875 53.996094 10.71875 C 53.054688 10.71875 52.292969 11.480469 52.292969 12.417969 L 52.292969 14.460938 L 47.261719 14.460938 L 47.261719 11.140625 C 47.261719 10.203125 46.5 9.441406 45.5625 9.441406 L 44.316406 9.441406 L 44.316406 4.605469 C 44.316406 2.589844 43.003906 0.855469 41.046875 0.296875 C 39.109375 -0.261719 37.171875 0.476562 36.113281 2.171875 C 36.0625 2.253906 36.011719 2.339844 35.964844 2.425781 C 35.648438 3.011719 35.101562 3.074219 34.878906 3.074219 C 34.660156 3.074219 34.113281 3.011719 33.796875 2.425781 C 32.984375 0.929688 31.425781 0 29.722656 0 C 28.019531 0 26.457031 0.929688 25.648438 2.425781 C 25.648438 2.429688 25.644531 2.429688 25.644531 2.433594 C 25.328125 3.011719 24.785156 3.074219 24.5625 3.074219 C 24.34375 3.074219 23.796875 3.011719 23.480469 2.425781 C 23.480469 2.425781 23.476562 2.421875 23.476562 2.417969 C 23.429688 2.332031 23.378906 2.25 23.332031 2.167969 C 22.273438 0.476562 20.335938 -0.261719 18.398438 0.292969 C 16.441406 0.855469 15.125 2.589844 15.125 4.605469 L 15.125 10.910156 L 13.515625 10.910156 C 12.574219 10.910156 11.8125 11.671875 11.8125 12.613281 L 11.8125 18.246094 C 11.8125 18.429688 11.714844 18.601562 11.554688 18.6875 C 8.109375 20.535156 5.972656 24.113281 5.972656 28.019531 C 5.972656 30.703125 6.976562 33.238281 8.8125 35.207031 L 1.957031 35.207031 C 1.019531 35.207031 0.257812 35.96875 0.257812 36.90625 L 0.257812 41.667969 C 0.257812 42.609375 1.019531 43.371094 1.957031 43.371094 L 6.550781 43.371094 L 6.550781 73.300781 C 6.550781 74.238281 7.3125 75 8.25 75 C 9.191406 75 9.949219 74.238281 9.949219 73.300781 L 9.949219 51.871094 L 65.050781 51.871094 L 65.050781 73.300781 C 65.050781 74.238281 65.808594 75 66.75 75 C 67.6875 75 68.449219 74.238281 68.449219 73.300781 L 68.449219 43.371094 L 73.042969 43.371094 C 73.980469 43.371094 74.742188 42.609375 74.742188 41.667969 L 74.742188 36.90625 C 74.742188 35.96875 73.980469 35.207031 73.042969 35.207031 Z M 61.648438 28.40625 C 61.179688 28.40625 60.796875 28.023438 60.796875 27.554688 L 60.796875 17.859375 L 62.5 17.859375 L 62.5 27.554688 C 62.5 28.023438 62.117188 28.40625 61.648438 28.40625 Z M 60.796875 10.71875 L 62.5 10.71875 L 62.5 14.460938 L 60.796875 14.460938 Z M 44.058594 18.671875 L 48.445312 26.925781 C 48.625 27.265625 48.507812 27.550781 48.425781 27.6875 C 48.339844 27.828125 48.140625 28.066406 47.761719 28.066406 L 36.964844 28.066406 C 36.582031 28.066406 36.382812 27.828125 36.300781 27.6875 C 36.214844 27.550781 36.101562 27.265625 36.28125 26.925781 L 40.664062 18.671875 C 40.796875 18.425781 40.863281 18.152344 40.863281 17.871094 L 40.863281 17.859375 L 43.859375 17.859375 L 43.859375 17.871094 C 43.859375 18.152344 43.929688 18.425781 44.058594 18.671875 Z M 40.863281 14.460938 L 40.863281 12.839844 L 43.859375 12.839844 L 43.859375 14.460938 Z M 15.214844 16.542969 L 15.214844 14.3125 L 17.910156 14.3125 L 17.910156 16.542969 Z M 13.164062 21.683594 C 13.902344 21.285156 14.472656 20.671875 14.824219 19.945312 L 18.300781 19.945312 C 18.652344 20.671875 19.226562 21.289062 19.96875 21.6875 C 22.300781 22.945312 23.75 25.371094 23.75 28.019531 C 23.75 31.949219 20.550781 35.175781 16.621094 35.207031 C 14.703125 35.222656 12.890625 34.476562 11.511719 33.109375 C 10.132812 31.742188 9.375 29.933594 9.375 28.019531 C 9.375 25.367188 10.824219 22.9375 13.164062 21.683594 Z M 21.582031 18.691406 C 21.414062 18.601562 21.308594 18.429688 21.308594 18.246094 L 21.308594 12.613281 C 21.308594 11.671875 20.546875 10.910156 19.609375 10.910156 L 18.527344 10.910156 L 18.527344 4.605469 C 18.527344 3.855469 19.144531 3.617188 19.332031 3.5625 C 19.605469 3.484375 20.109375 3.433594 20.445312 3.972656 C 20.460938 3.996094 20.476562 4.019531 20.488281 4.046875 C 20.492188 4.050781 20.492188 4.054688 20.496094 4.054688 C 21.304688 5.546875 22.863281 6.472656 24.5625 6.472656 C 26.265625 6.472656 27.828125 5.542969 28.636719 4.046875 C 28.640625 4.046875 28.640625 4.042969 28.640625 4.042969 C 28.957031 3.464844 29.503906 3.402344 29.722656 3.402344 C 29.941406 3.402344 30.492188 3.464844 30.804688 4.046875 C 31.617188 5.542969 33.179688 6.472656 34.878906 6.472656 C 36.582031 6.472656 38.144531 5.542969 38.957031 4.046875 C 38.96875 4.019531 38.984375 3.996094 39 3.972656 C 39.332031 3.4375 39.839844 3.488281 40.109375 3.566406 C 40.300781 3.617188 40.917969 3.855469 40.917969 4.605469 L 40.917969 9.441406 L 39.164062 9.441406 C 38.222656 9.441406 37.464844 10.203125 37.464844 11.140625 L 37.464844 17.449219 L 33.277344 25.332031 C 32.582031 26.636719 32.621094 28.175781 33.386719 29.441406 C 34.148438 30.710938 35.484375 31.464844 36.964844 31.464844 L 47.761719 31.464844 C 49.238281 31.464844 50.578125 30.710938 51.339844 29.441406 C 52.101562 28.175781 52.140625 26.636719 51.449219 25.332031 L 47.480469 17.859375 L 52.292969 17.859375 L 52.292969 35.207031 L 44.0625 35.207031 L 44.0625 34.527344 C 44.0625 33.585938 43.300781 32.824219 42.363281 32.824219 C 41.421875 32.824219 40.660156 33.585938 40.660156 34.527344 L 40.660156 35.207031 L 24.316406 35.207031 C 26.074219 33.3125 27.152344 30.785156 27.152344 28.019531 C 27.152344 24.117188 25.015625 20.546875 21.582031 18.691406 Z M 65.050781 48.472656 L 9.949219 48.472656 L 9.949219 43.371094 L 65.050781 43.371094 Z M 71.339844 39.96875 L 3.660156 39.96875 L 3.660156 38.609375 L 71.339844 38.609375 Z M 71.339844 39.96875 "/>
</g>
</svg>
