<?xml version="1.0" encoding="UTF-8"?>
<svg xmlns="http://www.w3.org/2000/svg" xmlns:xlink="http://www.w3.org/1999/xlink" width="75px" height="75px" viewBox="0 0 75 75" version="1.1">
<g id="surface1">
<path style=" stroke:none;fill-rule:nonzero;fill:rgb(0%,0%,0%);fill-opacity:1;" d="M 2.121094 25.363281 L 3.160156 25.363281 L 3.160156 16.535156 L 20.777344 16.535156 L 20.777344 25.363281 L 21.8125 25.363281 L 21.8125 16.535156 L 23.660156 16.535156 L 23.660156 14.675781 L 0 14.675781 L 0 16.535156 L 2.121094 16.535156 Z M 2.121094 25.363281 "/>
<path style=" stroke:none;fill-rule:nonzero;fill:rgb(0%,0%,0%);fill-opacity:1;" d="M 3.980469 12.757812 L 3.980469 14.261719 L 18.976562 14.261719 C 19.980469 14.261719 20.902344 14.261719 21.863281 14.261719 C 21.863281 13.382812 21.15625 12.675781 20.285156 12.675781 C 19.738281 12.675781 19.273438 12.976562 18.988281 13.40625 L 20.070312 6.027344 L 2.949219 6.027344 L 4 12.757812 Z M 12.085938 9.769531 C 12.625 9.769531 13.066406 10.1875 13.066406 10.699219 C 13.066406 11.214844 12.625 11.632812 12.085938 11.632812 C 11.539062 11.632812 11.101562 11.214844 11.101562 10.699219 C 11.101562 10.183594 11.539062 9.769531 12.085938 9.769531 Z M 12.085938 9.769531 "/>
<path style=" stroke:none;fill-rule:nonzero;fill:rgb(0%,0%,0%);fill-opacity:1;" d="M 27.878906 25.363281 L 28.917969 25.363281 L 28.917969 16.535156 L 46.527344 16.535156 L 46.527344 25.363281 L 47.570312 25.363281 L 47.570312 16.535156 L 49.421875 16.535156 L 49.421875 14.675781 L 25.757812 14.675781 L 25.757812 16.535156 L 27.878906 16.535156 Z M 27.878906 25.363281 "/>
<path style=" stroke:none;fill-rule:nonzero;fill:rgb(0%,0%,0%);fill-opacity:1;" d="M 29.738281 12.757812 L 29.738281 14.261719 L 44.734375 14.261719 C 45.738281 14.261719 46.660156 14.261719 47.625 14.261719 C 47.625 13.382812 46.910156 12.675781 46.039062 12.675781 C 45.492188 12.675781 45.027344 12.976562 44.746094 13.40625 L 45.824219 6.027344 L 28.703125 6.027344 L 29.753906 12.757812 Z M 37.84375 9.769531 C 38.382812 9.769531 38.828125 10.1875 38.828125 10.699219 C 38.828125 11.214844 38.386719 11.632812 37.84375 11.632812 C 37.296875 11.632812 36.859375 11.214844 36.859375 10.699219 C 36.859375 10.183594 37.296875 9.769531 37.84375 9.769531 Z M 37.84375 9.769531 "/>
<path style=" stroke:none;fill-rule:nonzero;fill:rgb(0%,0%,0%);fill-opacity:1;" d="M 53.277344 25.363281 L 54.3125 25.363281 L 54.3125 16.535156 L 71.929688 16.535156 L 71.929688 25.363281 L 72.960938 25.363281 L 72.960938 16.535156 L 74.808594 16.535156 L 74.808594 14.675781 L 51.152344 14.675781 L 51.152344 16.535156 L 53.277344 16.535156 Z M 53.277344 25.363281 "/>
<path style=" stroke:none;fill-rule:nonzero;fill:rgb(0%,0%,0%);fill-opacity:1;" d="M 55.136719 12.757812 L 55.136719 14.261719 L 70.128906 14.261719 C 71.132812 14.261719 72.054688 14.261719 73.019531 14.261719 C 73.019531 13.382812 72.308594 12.675781 71.4375 12.675781 C 70.886719 12.675781 70.425781 12.976562 70.140625 13.40625 L 71.21875 6.027344 L 54.097656 6.027344 L 55.144531 12.757812 Z M 63.238281 9.769531 C 63.78125 9.769531 64.222656 10.1875 64.222656 10.699219 C 64.222656 11.214844 63.78125 11.632812 63.238281 11.632812 C 62.695312 11.632812 62.253906 11.214844 62.253906 10.699219 C 62.253906 10.183594 62.6875 9.769531 63.238281 9.769531 Z M 63.238281 9.769531 "/>
<path style=" stroke:none;fill-rule:nonzero;fill:rgb(0%,0%,0%);fill-opacity:1;" d="M 0.183594 38.628906 L 2.304688 38.628906 L 2.304688 47.460938 L 3.34375 47.460938 L 3.34375 38.628906 L 20.957031 38.628906 L 20.957031 47.460938 L 21.996094 47.460938 L 21.996094 38.628906 L 23.84375 38.628906 L 23.84375 36.769531 L 0.183594 36.769531 Z M 0.183594 38.628906 "/>
<path style=" stroke:none;fill-rule:nonzero;fill:rgb(0%,0%,0%);fill-opacity:1;" d="M 4.164062 36.355469 L 19.164062 36.355469 C 20.167969 36.355469 21.085938 36.355469 22.050781 36.355469 C 22.050781 35.476562 21.34375 34.769531 20.472656 34.769531 C 19.921875 34.769531 19.457031 35.070312 19.175781 35.5 L 20.25 28.121094 L 3.128906 28.121094 L 4.179688 34.851562 L 4.164062 34.851562 Z M 12.269531 31.863281 C 12.8125 31.863281 13.253906 32.285156 13.253906 32.792969 C 13.253906 33.3125 12.8125 33.726562 12.269531 33.726562 C 11.726562 33.726562 11.285156 33.308594 11.285156 32.792969 C 11.285156 32.285156 11.722656 31.863281 12.269531 31.863281 Z M 12.269531 31.863281 "/>
<path style=" stroke:none;fill-rule:nonzero;fill:rgb(0%,0%,0%);fill-opacity:1;" d="M 25.941406 38.628906 L 28.0625 38.628906 L 28.0625 47.460938 L 29.101562 47.460938 L 29.101562 38.628906 L 46.71875 38.628906 L 46.71875 47.460938 L 47.753906 47.460938 L 47.753906 38.628906 L 49.601562 38.628906 L 49.601562 36.769531 L 25.941406 36.769531 Z M 25.941406 38.628906 "/>
<path style=" stroke:none;fill-rule:nonzero;fill:rgb(0%,0%,0%);fill-opacity:1;" d="M 29.925781 36.355469 L 44.917969 36.355469 C 45.925781 36.355469 46.84375 36.355469 47.808594 36.355469 C 47.808594 35.476562 47.097656 34.769531 46.226562 34.769531 C 45.679688 34.769531 45.210938 35.070312 44.929688 35.5 L 46.003906 28.121094 L 28.882812 28.121094 L 29.933594 34.851562 L 29.917969 34.851562 L 29.917969 36.355469 Z M 38.027344 31.863281 C 38.566406 31.863281 39.007812 32.285156 39.007812 32.792969 C 39.007812 33.3125 38.566406 33.726562 38.027344 33.726562 C 37.480469 33.726562 37.042969 33.308594 37.042969 32.792969 C 37.042969 32.285156 37.480469 31.863281 38.027344 31.863281 Z M 38.027344 31.863281 "/>
<path style=" stroke:none;fill-rule:nonzero;fill:rgb(0%,0%,0%);fill-opacity:1;" d="M 51.332031 36.769531 L 51.332031 38.628906 L 53.460938 38.628906 L 53.460938 47.460938 L 54.496094 47.460938 L 54.496094 38.628906 L 72.113281 38.628906 L 72.113281 47.460938 L 73.144531 47.460938 L 73.144531 38.628906 L 75 38.628906 L 75 36.769531 Z M 51.332031 36.769531 "/>
<path style=" stroke:none;fill-rule:nonzero;fill:rgb(0%,0%,0%);fill-opacity:1;" d="M 55.320312 36.355469 L 70.308594 36.355469 C 71.316406 36.355469 72.234375 36.355469 73.203125 36.355469 C 73.203125 35.476562 72.492188 34.769531 71.621094 34.769531 C 71.070312 34.769531 70.605469 35.070312 70.324219 35.5 L 71.394531 28.121094 L 54.277344 28.121094 L 55.328125 34.851562 L 55.308594 34.851562 L 55.308594 36.355469 Z M 63.421875 31.863281 C 63.964844 31.863281 64.40625 32.285156 64.40625 32.792969 C 64.40625 33.3125 63.964844 33.726562 63.421875 33.726562 C 62.878906 33.726562 62.4375 33.308594 62.4375 32.792969 C 62.4375 32.285156 62.871094 31.863281 63.421875 31.863281 Z M 63.421875 31.863281 "/>
<path style=" stroke:none;fill-rule:nonzero;fill:rgb(0%,0%,0%);fill-opacity:1;" d="M 0.183594 60.140625 L 2.304688 60.140625 L 2.304688 68.972656 L 3.34375 68.972656 L 3.34375 60.140625 L 20.957031 60.140625 L 20.957031 68.972656 L 21.996094 68.972656 L 21.996094 60.140625 L 23.84375 60.140625 L 23.84375 58.277344 L 0.183594 58.277344 Z M 0.183594 60.140625 "/>
<path style=" stroke:none;fill-rule:nonzero;fill:rgb(0%,0%,0%);fill-opacity:1;" d="M 3.132812 49.632812 L 4.183594 56.363281 L 4.164062 56.363281 L 4.164062 57.867188 L 19.164062 57.867188 C 20.167969 57.867188 21.085938 57.867188 22.050781 57.867188 C 22.050781 56.988281 21.34375 56.28125 20.472656 56.28125 C 19.921875 56.28125 19.457031 56.578125 19.175781 57.007812 L 20.25 49.632812 Z M 12.269531 55.238281 C 11.726562 55.238281 11.285156 54.816406 11.285156 54.304688 C 11.285156 53.792969 11.726562 53.375 12.269531 53.375 C 12.8125 53.375 13.253906 53.792969 13.253906 54.304688 C 13.253906 54.820312 12.8125 55.238281 12.269531 55.238281 Z M 12.269531 55.238281 "/>
<path style=" stroke:none;fill-rule:nonzero;fill:rgb(0%,0%,0%);fill-opacity:1;" d="M 25.941406 60.140625 L 28.0625 60.140625 L 28.0625 68.972656 L 29.101562 68.972656 L 29.101562 60.140625 L 46.71875 60.140625 L 46.71875 68.972656 L 47.753906 68.972656 L 47.753906 60.140625 L 49.601562 60.140625 L 49.601562 58.277344 L 25.941406 58.277344 Z M 25.941406 60.140625 "/>
<path style=" stroke:none;fill-rule:nonzero;fill:rgb(0%,0%,0%);fill-opacity:1;" d="M 28.890625 49.632812 L 29.941406 56.363281 L 29.925781 56.363281 L 29.925781 57.867188 L 44.917969 57.867188 C 45.925781 57.867188 46.84375 57.867188 47.808594 57.867188 C 47.808594 56.988281 47.097656 56.28125 46.226562 56.28125 C 45.679688 56.28125 45.210938 56.578125 44.929688 57.007812 L 46.003906 49.632812 Z M 38.027344 55.238281 C 37.480469 55.238281 37.042969 54.816406 37.042969 54.304688 C 37.042969 53.792969 37.480469 53.375 38.027344 53.375 C 38.566406 53.375 39.007812 53.792969 39.007812 54.304688 C 39.007812 54.820312 38.570312 55.238281 38.027344 55.238281 Z M 38.027344 55.238281 "/>
<path style=" stroke:none;fill-rule:nonzero;fill:rgb(0%,0%,0%);fill-opacity:1;" d="M 51.332031 60.140625 L 53.460938 60.140625 L 53.460938 68.972656 L 54.496094 68.972656 L 54.496094 60.140625 L 72.113281 60.140625 L 72.113281 68.972656 L 73.144531 68.972656 L 73.144531 60.140625 L 75 60.140625 L 75 58.277344 L 51.332031 58.277344 Z M 51.332031 60.140625 "/>
<path style=" stroke:none;fill-rule:nonzero;fill:rgb(0%,0%,0%);fill-opacity:1;" d="M 54.285156 49.632812 L 55.332031 56.363281 L 55.316406 56.363281 L 55.316406 57.867188 L 70.308594 57.867188 C 71.316406 57.867188 72.234375 57.867188 73.199219 57.867188 C 73.199219 56.988281 72.488281 56.28125 71.617188 56.28125 C 71.070312 56.28125 70.605469 56.578125 70.320312 57.007812 L 71.394531 49.632812 Z M 63.421875 55.238281 C 62.878906 55.238281 62.4375 54.816406 62.4375 54.304688 C 62.4375 53.792969 62.878906 53.375 63.421875 53.375 C 63.964844 53.375 64.40625 53.792969 64.40625 54.304688 C 64.40625 54.820312 63.964844 55.238281 63.421875 55.238281 Z M 63.421875 55.238281 "/>
</g>
</svg>
